<svg id="图层_1" data-name="图层 1" xmlns="http://www.w3.org/2000/svg" xmlns:xlink="http://www.w3.org/1999/xlink" viewBox="0 0 417.01 52"><defs><style>.cls-1{fill:none;}.cls-2{fill:#ea5514;}.cls-3{clip-path:url(#clip-path);}</style><clipPath id="clip-path" transform="translate(0 -2.59)"><rect class="cls-1" width="417" height="57.15"/></clipPath></defs><title>豪禾logo</title><rect class="cls-2" x="367.97" y="20.22" width="47.57" height="2.73"/><rect class="cls-2" x="387.32" y="8.45" width="8.19" height="42.77"/><g class="cls-3"><path class="cls-2" d="M397.71,23.15c2.41,6.09,7,14.59,19.3,24.17l-2,2.47A67.63,67.63,0,0,1,390,26.1Z" transform="translate(0 -2.59)"/><path class="cls-2" d="M385.12,23.15c-2.41,6.09-7,14.59-19.3,24.17l2,2.47a67.63,67.63,0,0,0,25-23.69Z" transform="translate(0 -2.59)"/><path class="cls-2" d="M405.71,2.59c-9.89,5-24,7.3-35.71,7.79l.43,2.81C382.22,14,398.15,12.1,410,9.66Z" transform="translate(0 -2.59)"/><polygon class="cls-2" points="312.81 20.22 312.81 29.64 319.64 29.64 319.64 22.95 354.04 22.95 354.04 29.64 360.87 29.64 360.87 20.22 312.81 20.22"/><rect class="cls-2" x="312.32" y="4.01" width="49.04" height="2.73"/><path class="cls-2" d="M355.2,20.34H318.49V11.81H355.2Zm-6.83-5.8H325.31v3.07h23.06Z" transform="translate(0 -2.59)"/><rect class="cls-2" x="332.75" y="0.26" width="8.19" height="4.7"/><rect class="cls-2" x="321.42" y="25.11" width="30.85" height="2.73"/><path class="cls-2" d="M330.7,30.43a61.58,61.58,0,0,1-16,5.9l.71,2.2c8-1.1,17.54-3.82,24.91-8.11Z" transform="translate(0 -2.59)"/><path class="cls-2" d="M330,32.37c3.63,3.07,6.76,6.54,7.15,12s-3.54,7.71-10,6.16l-.88,2.52c7.07,2.75,14.93,1.81,16.54-3.74,1.42-4.86-1.2-13.36-6.92-17.52Z" transform="translate(0 -2.59)"/><path class="cls-2" d="M335.11,34.67c-4.17,2.94-13.84,6.78-21.8,8.27l.49,2.24c10.91-1.4,20.43-5.26,24.22-7.47Z" transform="translate(0 -2.59)"/><path class="cls-2" d="M338.7,39.21C334.38,41.74,326.82,46.42,312,49l.65,2.3c13.74-1.67,21.68-4.42,28-8Z" transform="translate(0 -2.59)"/><path class="cls-2" d="M340.64,40.13a48.34,48.34,0,0,0,12.58-7.75l3.16,3.52a55.9,55.9,0,0,1-14.53,5.86Z" transform="translate(0 -2.59)"/><path class="cls-2" d="M360.06,53.33A32.31,32.31,0,0,1,343.9,40.11l5.39-2.63A29.79,29.79,0,0,0,361.6,51.07Z" transform="translate(0 -2.59)"/><path class="cls-2" d="M36.42,53.81H29.27V32.23H9.51V51.45a2.36,2.36,0,0,1-2.36,2.36H0V9A2.36,2.36,0,0,1,2.36,6.61H9.51V25.89H29.27V9.1a2.36,2.36,0,0,1,2.36-2.36h7.14V51.45a2.36,2.36,0,0,1-2.35,2.36" transform="translate(0 -2.59)"/><path class="cls-2" d="M174.37,53.81h-7.15V32.23H147.46V51.45a2.36,2.36,0,0,1-2.36,2.36H138V9a2.36,2.36,0,0,1,2.36-2.36h7.15V25.89h19.76V9.1a2.36,2.36,0,0,1,2.36-2.36h7.15V51.45a2.36,2.36,0,0,1-2.36,2.36" transform="translate(0 -2.59)"/><path class="cls-2" d="M212.78,13H194V25.89h18.75v6.34H194V47.47h18.75v6.34H184.52V9a2.36,2.36,0,0,1,2.36-2.36h25.9Z" transform="translate(0 -2.59)"/><path class="cls-2" d="M87.93,53.81,70.2,6.61H64.38a2.36,2.36,0,0,0-2.22,3.16L77.51,52.25a2.35,2.35,0,0,0,2.22,1.56Z" transform="translate(0 -2.59)"/><path class="cls-2" d="M53.52,52.25,70,6.61H62.46a2.37,2.37,0,0,0-2.21,1.53L43.09,53.81H51.3a2.36,2.36,0,0,0,2.22-1.56" transform="translate(0 -2.59)"/><path class="cls-2" d="M260,53.81,242.25,6.61h-5.82a2.35,2.35,0,0,0-2.22,3.16l15.35,42.48a2.34,2.34,0,0,0,2.22,1.56Z" transform="translate(0 -2.59)"/><path class="cls-2" d="M225.57,52.25,242.05,6.61h-7.54a2.35,2.35,0,0,0-2.21,1.53L215.14,53.81h8.21a2.36,2.36,0,0,0,2.22-1.56" transform="translate(0 -2.59)"/><path class="cls-2" d="M118.17,24.59a8.72,8.72,0,0,0-7.76,9.59,8.73,8.73,0,0,0,7.76-9.59" transform="translate(0 -2.59)"/><path class="cls-2" d="M100.82,24.59a8.73,8.73,0,0,1,7.77,9.59,8.74,8.74,0,0,1-7.77-9.59" transform="translate(0 -2.59)"/><path class="cls-2" d="M118.17,33.65a8.72,8.72,0,0,0-7.76,9.59,8.73,8.73,0,0,0,7.76-9.59" transform="translate(0 -2.59)"/><path class="cls-2" d="M100.82,33.65a8.74,8.74,0,0,1,7.77,9.59,8.74,8.74,0,0,1-7.77-9.59" transform="translate(0 -2.59)"/><path class="cls-2" d="M109.5,15.39a8.71,8.71,0,0,0,0,12.33,8.73,8.73,0,0,0,0-12.33" transform="translate(0 -2.59)"/><path class="cls-2" d="M109.5,5.8C96,5.8,86,16.32,86,29.53c0,13.8,8.66,24.61,22.63,25.06v-5c-10.21-.56-13.86-10.49-13.86-20.14s4.38-18.69,14.76-18.69,14.76,9.12,14.76,18.69-3.65,19.58-13.85,20.14v5c14-.45,22.63-11.26,22.63-25.06,0-13.21-10-23.73-23.54-23.73" transform="translate(0 -2.59)"/><path class="cls-2" d="M278.67,6.6c19.22,0,25.83,10.86,25.83,22.26,0,15.58-10,25-26.71,25H262.34V6.6Zm-6.82,40.87h5.8c10.86,0,16.73-5.53,16.73-18.68,0-9.78-5.67-15.85-15.65-15.85h-6.88Z" transform="translate(0 -2.59)"/></g></svg>